<svg xmlns="http://www.w3.org/2000/svg" viewBox="0 0 512 512" role="img" aria-labelledby="title desc">
  <title id="title">Attendance Predictor logo</title>
  <desc id="desc">Calendar with attendance checks, clock, person and rising progress arrow</desc>
  <rect width="512" height="512" rx="42" fill="#fff"/>
  <g transform="translate(72 38)">
    <rect x="70" y="42" width="218" height="190" rx="22" fill="#eaf6fb" stroke="#d8eaf3" stroke-width="8"/>
    <path d="M70 68c0-14 12-26 26-26h166c14 0 26 12 26 26v39H70z" fill="#1976d2"/>
    <path d="M122 25v45M244 25v45" stroke="#1976d2" stroke-width="23" stroke-linecap="round"/>
    <g fill="#31aa76"><rect x="92" y="120" width="43" height="34" rx="8"/><rect x="148" y="120" width="43" height="34" rx="8"/><rect x="204" y="120" width="43" height="34" rx="8"/><rect x="92" y="166" width="43" height="34" rx="8"/><rect x="148" y="166" width="43" height="34" rx="8"/></g>
    <g fill="none" stroke="#fff" stroke-width="7" stroke-linecap="round" stroke-linejoin="round"><path d="m101 137 10 10 18-22"/><path d="m157 137 10 10 18-22"/><path d="m213 137 10 10 18-22"/><path d="m101 183 10 10 18-22"/><path d="m157 183 10 10 18-22"/></g>
    <circle cx="300" cy="142" r="67" fill="#f7fbff" stroke="#176dcc" stroke-width="12"/><path d="M300 142v-28M300 142l28 17" stroke="#164a87" stroke-width="9" stroke-linecap="round"/><circle cx="300" cy="142" r="8" fill="#164a87"/>
    <path d="M42 285c68 20 161 11 263-42 27-14 48-29 69-48" fill="none" stroke="#18a67e" stroke-width="13" stroke-linecap="round"/><path d="m357 181 29 4-7 29" fill="#18a67e"/>
    <path d="M0 270c0-24 19-43 43-43s43 19 43 43-19 43-43 43S0 294 0 270Zm-21 85c9-32 31-49 64-49s55 17 64 49c-26 19-101 19-128 0Z" fill="#164a87"/>
    <g fill="#32bf92"><rect x="288" y="267" width="22" height="37" rx="6"/><rect x="319" y="248" width="22" height="56" rx="6"/><rect x="350" y="226" width="22" height="78" rx="6"/></g>
  </g>
  <text x="256" y="390" text-anchor="middle" fill="#12396c" font-family="Arial,sans-serif" font-size="47" font-weight="800" letter-spacing="1">ATTENDANCE</text>
  <path d="M55 424h50M407 424h50" stroke="#19a77f" stroke-width="7"/>
  <text x="256" y="438" text-anchor="middle" fill="#19a77f" font-family="Arial,sans-serif" font-size="26" font-weight="700" letter-spacing="9">PREDICTOR</text>
</svg>
